<svg width="1058" height="785" viewBox="0 0 1058 785" fill="none" xmlns="http://www.w3.org/2000/svg">
<g id="undraw_Ride_a_bicycle_2yok 1" clip-path="url(#clip0)">
<path id="Vector" d="M209.73 115.43C204.25 122.08 202.14 131.43 199.78 140.22C180.78 211.06 133.96 268.04 80.64 308.74C58.06 325.98 30.57 349.1 35.51 380.01C38.17 396.61 49.84 408.83 58.51 422.35C76.7 450.66 82.6 489.14 73.93 523.03C64.07 561.59 36.51 597.57 45.04 636.56C50.3 660.56 68.16 677.64 85.33 692.32C112.117 715.207 139.757 736.647 168.25 756.64C187.35 770.04 207.67 783.08 229.93 784.78C249.53 786.28 268.73 778.83 287.34 771.48C303.6 765.05 320.27 758.36 333.4 745.48C341.97 737.07 348.8 726.22 358.32 719.34C380.68 703.18 409.4 713.42 435.04 720.34C495.54 736.58 560.29 730.65 617.86 703.6C706.17 662.1 773.48 574.95 859.86 528.19C897 508.08 937.4 495.6 971.79 469.7C991.165 454.953 1007.82 436.936 1020.99 416.46C1046.99 376.35 1061.05 325.21 1056.99 275.15C1052.93 225.09 1030.18 176.85 994.45 148.59C956.2 118.34 907.89 112.69 864.37 94.53C819.43 75.77 779.45 43.53 734.94 23.4C698.924 7.15662 659.728 -0.817191 620.228 0.0635836C580.728 0.944358 541.926 10.6574 506.67 28.49C458.23 52.99 409.13 110.15 355.18 114.49C316.74 117.49 239.75 79.01 209.73 115.43Z" fill="url(#paint0_linear)"/>
<g id="men-on-bike">
<path id="Vector_2" d="M387 554.303L344.293 512.159L330.947 525.683L373.654 567.827L387 554.303Z" fill="#535461"/>
<path id="Vector_3" opacity="0.1" d="M387 554.303L344.293 512.159L330.947 525.683L373.654 567.827L387 554.303Z" fill="black"/>
<path id="Vector_4" d="M354.48 491.99C354.48 491.99 379.27 478.91 388.85 470.49C394.617 465.444 400.818 460.917 407.38 456.96L438.48 438.03L503.48 433.03L506.48 444.03C506.48 444.03 511.48 460.03 461.48 474.03C411.48 488.03 386.48 510.03 386.48 510.03C386.48 510.03 354.48 520.99 354.48 491.99Z" fill="#DB8B8B"/>
<path id="Vector_5" opacity="0.1" d="M389.13 507.86C387.36 509.21 386.48 509.99 386.48 509.99C386.48 509.99 354.48 520.99 354.48 491.99C354.48 491.99 356.03 491.17 358.48 489.8C360.955 493.831 364.423 497.16 368.551 499.469C372.679 501.778 377.33 502.99 382.06 502.99H385.45L389.13 507.86Z" fill="black"/>
<path id="Vector_6" opacity="0.05" d="M505.54 449.55C502.76 455.44 493.17 465.12 461.48 473.99C420.87 485.36 396.75 501.99 389.13 507.86C387.36 509.21 386.48 509.99 386.48 509.99C386.48 509.99 354.48 520.99 354.48 491.99C354.48 491.99 356.03 491.17 358.48 489.8C365.91 485.73 381.64 476.8 388.82 470.45C394.586 465.403 400.787 460.875 407.35 456.92L438.45 437.99L450.03 437.1L503.45 432.99L506.45 443.99C506.45 443.99 507.15 446.14 505.54 449.55Z" fill="black"/>
<path id="Vector_7" d="M354.98 485.49L328.48 502.99L406.08 567.99C406.08 567.99 417.48 560.99 411.48 552.99C411.48 552.99 391.48 535.99 390.48 511.99L384.48 503.99H381.09C375.358 503.991 369.767 502.211 365.089 498.897C360.412 495.583 356.88 490.898 354.98 485.49V485.49Z" fill="#ABB1D1"/>
<path id="Vector_8" opacity="0.1" d="M505.54 449.55C489.54 441.82 450.48 440.99 450.48 440.99L450.06 437.1L503.48 432.99L506.48 443.99C506.48 443.99 507.15 446.14 505.54 449.55Z" fill="black"/>
<path id="Vector_9" d="M450.48 438.99C450.48 438.99 497.48 439.99 509.48 449.99L503.48 328.99H438.48L450.48 438.99Z" fill="#ABB1D1"/>
<path id="Vector_10" opacity="0.05" d="M450.48 438.49C450.48 438.49 497.48 439.49 509.48 449.49L503.48 328.49H438.48L450.48 438.49Z" fill="black"/>
<path id="Vector_11" d="M488.24 364.95C488.24 364.95 605.89 360.95 608.29 376.16C610.69 391.37 490.64 384.96 490.64 384.96C490.64 384.96 481.04 375.35 488.24 364.95Z" fill="#535461"/>
<path id="Vector_12" opacity="0.05" d="M488.24 364.95C488.24 364.95 605.89 360.95 608.29 376.16C610.69 391.37 490.64 384.96 490.64 384.96C490.64 384.96 481.04 375.35 488.24 364.95Z" fill="black"/>
<path id="Vector_13" d="M393 425.78H372.19V606.66H393V425.78Z" fill="#535461"/>
<path id="Vector_14" opacity="0.1" d="M393 425.77V439.7C386.08 440.6 379 441.17 372.19 441.39V425.77H393Z" fill="black"/>
<path id="Vector_15" d="M391.44 410.78C388.52 410.554 385.616 410.163 382.74 409.61C371.46 407.45 343.02 402.92 335.37 410.61C325.77 420.21 328.97 437.02 354.58 439.42C380.19 441.82 424.21 435.42 433.02 425.81C433.02 425.77 417.09 412.75 391.44 410.78Z" fill="#535461"/>
<path id="Vector_16" d="M387.4 475.4L605.9 407.37L613.1 424.18L389 501.01L387.4 475.4Z" fill="#535461"/>
<path id="Vector_17" d="M452.23 582.65L609.9 427.38L618.7 440.18L468.23 597.05L452.23 582.65Z" fill="#535461"/>
<path id="Vector_18" opacity="0.1" d="M653.58 529.85C648.584 531.142 643.712 532.872 639.02 535.02L629.46 508.31C634.477 506.123 639.644 504.295 644.92 502.84L653.58 529.85Z" fill="black"/>
<path id="Vector_19" d="M680.33 608.26L669.13 614.66L590.99 396.33L587.49 386.56L605.9 376.15L610.51 390.53L680.33 608.26Z" fill="#535461"/>
<path id="Vector_20" opacity="0.1" d="M610.51 390.53L590.99 396.33L587.49 386.56L605.9 376.15L610.51 390.53Z" fill="black"/>
<path id="Vector_21" d="M491.44 407.37L601.09 369.75C601.09 369.75 620.3 372.15 613.09 388.16L502.65 420.97C502.65 420.97 485.85 422.57 491.44 407.37Z" fill="#535461"/>
<path id="Vector_22" opacity="0.1" d="M367.79 615.86C367.789 621.994 367.314 628.119 366.37 634.18C356.77 633.49 346.85 632.49 337.13 631.49C339.289 619.599 339.021 607.394 336.34 595.61C345.81 593.61 355.48 591.7 364.92 589.97C366.833 598.467 367.795 607.15 367.79 615.86V615.86Z" fill="black"/>
<path id="Vector_23" opacity="0.1" d="M393 585.38V606.65H372.19V588.65C379.39 587.4 386.39 586.29 393 585.38Z" fill="black"/>
<path id="Vector_24" d="M258.54 615.49C258.54 615.49 426.62 571.49 440.22 588.28C453.82 605.07 468.23 627.49 425.85 635.49C383.47 643.49 255.37 621.88 255.37 621.88L258.54 615.49Z" fill="#535461"/>
<path id="Vector_25" opacity="0.1" d="M341.21 541.37L319.85 560.92C316.067 556.064 311.791 551.614 307.09 547.64L327.03 526.81C332.164 531.249 336.908 536.12 341.21 541.37V541.37Z" fill="black"/>
<path id="Vector_26" d="M252.94 606.66L378.59 475.4L382.6 505.81L259.34 618.66L252.94 606.66Z" fill="#535461"/>
<path id="Vector_27" opacity="0.1" d="M251.34 628.27C258.415 628.27 264.15 622.535 264.15 615.46C264.15 608.385 258.415 602.65 251.34 602.65C244.265 602.65 238.53 608.385 238.53 615.46C238.53 622.535 244.265 628.27 251.34 628.27Z" fill="black"/>
<path id="Vector_28" opacity="0.1" d="M675.13 627.07C682.205 627.07 687.94 621.335 687.94 614.26C687.94 607.185 682.205 601.45 675.13 601.45C668.055 601.45 662.32 607.185 662.32 614.26C662.32 621.335 668.055 627.07 675.13 627.07Z" fill="black"/>
<path id="Vector_29" opacity="0.1" d="M448.22 628.27C462.364 628.27 473.83 616.804 473.83 602.66C473.83 588.516 462.364 577.05 448.22 577.05C434.076 577.05 422.61 588.516 422.61 602.66C422.61 616.804 434.076 628.27 448.22 628.27Z" fill="black"/>
<path id="Vector_30" d="M449.83 628.27C463.974 628.27 475.44 616.804 475.44 602.66C475.44 588.516 463.974 577.05 449.83 577.05C435.686 577.05 424.22 588.516 424.22 602.66C424.22 616.804 435.686 628.27 449.83 628.27Z" fill="#535461"/>
<path id="Vector_31" d="M442.992 600.736L442.984 600.742C439.977 602.991 439.362 607.253 441.611 610.26L461.937 637.441C464.186 640.448 468.447 641.063 471.455 638.814L471.463 638.808C474.471 636.559 475.085 632.297 472.836 629.29L452.51 602.109C450.261 599.102 446 598.487 442.992 600.736Z" fill="#6C63FF"/>
<path id="Vector_32" d="M565.48 246.99L563.1 277.1C562.826 280.914 562.876 284.744 563.25 288.55C563.56 291.92 563.25 297.82 559.95 306.82C555.713 318.317 553.523 330.467 553.48 342.72V376.99L530.48 372.99C530.48 372.99 531.48 324.99 527.48 316.99C523.48 308.99 530.48 237.99 530.48 237.99L565.48 246.99Z" fill="#DB8B8B"/>
<path id="Vector_33" opacity="0.05" d="M564.3 261.91L563.1 277.1C562.83 280.911 562.883 284.738 563.26 288.54C563.57 291.91 563.26 297.81 559.96 306.82C555.723 318.317 553.533 330.467 553.49 342.72V376.99L530.49 372.99C530.49 372.99 531.49 324.99 527.49 316.99C524.66 311.32 527.34 274.05 529.15 252.78C529.9 244.03 530.49 237.99 530.49 237.99L565.49 246.99L564.3 261.91Z" fill="black"/>
<path id="Vector_34" d="M451.5 476.99L442.85 526.19C441.759 532.759 440.086 539.218 437.85 545.49C432.78 559.35 436.02 578.78 438.48 589.38C439.57 594.06 440.48 597.02 440.48 597.02L414.48 611.02L406.48 605.02V601.02L405.48 512.02C399.48 498.02 401.48 477.02 405.48 469.02C406.617 466.392 407.417 463.63 407.86 460.8C409.86 450.08 410.48 435.02 410.48 435.02C410.48 435.02 426.48 408.02 445.48 426.02C452.48 432.65 455.14 441.32 455.7 449.62C456.68 463.83 451.5 476.99 451.5 476.99Z" fill="#DB8B8B"/>
<path id="Vector_35" opacity="0.1" d="M455.7 449.59C441.83 457.83 417.7 460.16 407.86 460.77C409.86 450.05 410.48 434.99 410.48 434.99C410.48 434.99 426.48 407.99 445.48 425.99C452.48 432.62 455.14 441.29 455.7 449.59Z" fill="black"/>
<path id="Vector_36" d="M489.48 424.99C478.846 430.653 468.797 437.352 459.48 444.99C443.48 457.99 403.48 458.99 403.48 458.99V443.99C404.48 425.99 387.48 405.99 364.48 349.99C349.79 314.23 353.86 293.99 358.72 283.99C361.48 278.34 364.48 275.99 364.48 275.99L489.48 299.99L493.95 313.39L503.48 341.99C503.48 341.99 468.48 343.99 462.48 346.99C456.48 349.99 460.48 376.99 460.48 376.99C454.48 404.99 489.48 424.99 489.48 424.99Z" fill="#ABB1D1"/>
<path id="Vector_37" opacity="0.1" d="M565.48 246.99L564.3 261.91C546.9 266.91 534.48 250.99 534.48 250.99C532.665 251.477 530.882 252.074 529.14 252.78C529.89 244.03 530.48 237.99 530.48 237.99L565.48 246.99Z" fill="black"/>
<path id="Vector_38" opacity="0.1" d="M493.95 313.39C493.48 318.06 493.48 320.99 493.48 320.99C493.48 320.99 470.48 339.99 431.48 310.99C392.48 281.99 357.48 289.99 357.48 289.99C357.48 289.99 357.89 287.67 358.72 283.99C361.48 278.34 364.48 275.99 364.48 275.99L489.48 299.99L493.95 313.39Z" fill="black"/>
<path id="Vector_39" d="M578.96 207.94C576.35 228.29 575.48 253.94 575.48 253.94C552.48 271.94 534.48 248.94 534.48 248.94C512.76 254.77 502.55 273.78 497.74 290.37C495.164 299.344 493.732 308.607 493.48 317.94C493.48 317.94 487.4 322.94 476.2 323.94C465.61 324.83 450.43 322.07 431.48 307.94C392.48 278.94 357.48 286.94 357.48 286.94C357.48 286.94 364.48 246.94 380.48 234.94C396.48 222.94 408.48 207.94 428.48 161.94C448.48 115.94 489.48 126.94 489.48 126.94C489.48 126.94 491.48 117.94 528.48 126.94C537.492 129.302 545.834 133.721 552.85 139.85C572.64 156.49 582.24 182.3 578.96 207.94Z" fill="white"/>
<path id="Vector_40" d="M541.85 149.49C541.8 150.82 541.69 152.3 541.51 153.95C539.51 171.95 537.51 169.95 515.51 173.95C501.83 176.44 494.72 165.01 491.3 156.01C490.062 152.75 489.128 149.382 488.51 145.95L536.51 137.95C536.51 137.95 542.26 136.34 541.85 149.49Z" fill="#DB8B8B"/>
<path id="Vector_41" opacity="0.05" d="M497.74 290.42C495.164 299.394 493.732 308.657 493.48 317.99C493.48 317.99 487.4 322.99 476.2 323.99C475.884 323.353 475.643 322.682 475.48 321.99C473.48 312.99 458.48 296.99 458.48 296.99C448.48 287.99 446.48 271.99 446.48 271.99L429.98 223.49L424.48 218.99C424.48 218.99 447.48 200.99 467.48 215.99C487.48 230.99 481.48 262.99 481.48 262.99L485.48 273.99C489.63 277.49 493.85 283.66 497.74 290.42Z" fill="black"/>
<path id="Vector_42" d="M427.48 217.99L449.48 270.99C449.48 270.99 451.48 286.99 461.48 295.99C461.48 295.99 476.48 311.99 478.48 320.99C480.48 329.99 508.48 353.99 508.48 353.99C508.48 353.99 534.48 377.99 536.48 386.99C536.48 386.99 560.48 393.99 557.48 407.99C557.48 407.99 575.48 389.99 557.48 372.99C539.48 355.99 515.48 320.99 515.48 320.99C515.48 320.99 501.48 283.99 488.48 272.99L484.48 261.99C484.48 261.99 490.48 229.99 470.48 214.99C450.48 199.99 427.48 217.99 427.48 217.99Z" fill="#DB8B8B"/>
<path id="Vector_43" opacity="0.1" d="M440.48 596.99L414.48 610.99L406.48 604.99V600.99C415.464 600.352 424.193 597.718 432.03 593.28C434.43 591.92 436.69 590.58 438.5 589.4C439.55 594.03 440.48 596.99 440.48 596.99Z" fill="black"/>
<path id="Vector_44" opacity="0.1" d="M470.48 175.99L484.48 230.99C484.48 230.99 441.48 237.99 432.48 230.99C423.48 223.99 406.48 221.99 406.48 221.99C406.48 221.99 424.48 169.99 434.48 163.99C444.48 157.99 470.48 175.99 470.48 175.99Z" fill="black"/>
<path id="Vector_45" d="M470.48 173.99L484.48 228.99C484.48 228.99 441.48 235.99 432.48 228.99C423.48 221.99 406.48 219.99 406.48 219.99C406.48 219.99 424.48 167.99 434.48 161.99C444.48 155.99 470.48 173.99 470.48 173.99Z" fill="white"/>
<path id="Vector_46" opacity="0.1" d="M541.85 148.49C539.049 152.356 535.487 155.609 531.383 158.047C527.278 160.485 522.718 162.058 517.983 162.669C513.249 163.28 508.439 162.915 503.85 161.598C499.261 160.281 494.99 158.039 491.3 155.01C490.062 151.75 489.128 148.382 488.51 144.95L536.51 136.95C536.51 136.95 542.26 135.34 541.85 148.49Z" fill="black"/>
<path id="Vector_47" d="M548.48 126.99C548.48 136.273 544.792 145.175 538.229 151.739C531.665 158.302 522.763 161.99 513.48 161.99C504.197 161.99 495.295 158.302 488.731 151.739C482.167 145.175 478.48 136.273 478.48 126.99C478.48 126.41 478.48 125.83 478.48 125.25C478.711 115.967 482.62 107.157 489.346 100.756C496.073 94.3554 505.067 90.8892 514.35 91.12C523.633 91.3507 532.443 95.2595 538.844 101.986C545.244 108.713 548.711 117.707 548.48 126.99V126.99Z" fill="#DB8B8B"/>
<path id="Vector_48" opacity="0.1" d="M548.48 126.99C548.483 130.216 548.039 133.426 547.16 136.53C544.455 137.12 541.633 136.861 539.08 135.79C535.34 134.32 532.13 131.79 528.54 129.97C518.43 124.85 506.4 125.86 495.2 127.55C489.64 128.39 483.33 129.17 478.96 125.63C478.81 125.511 478.666 125.385 478.53 125.25C478.761 115.967 482.67 107.157 489.396 100.756C496.123 94.3554 505.117 90.8892 514.4 91.12C523.683 91.3507 532.493 95.2595 538.894 101.986C545.295 108.713 548.761 117.707 548.53 126.99H548.48Z" fill="black"/>
<path id="Vector_49" opacity="0.05" d="M384.98 234.49C384.98 234.49 410.98 241.49 418.98 259.49C426.98 277.49 448.62 280.78 448.62 280.78" fill="black"/>
<path id="Vector_50" d="M482.98 630.49H422.98V649.49H482.98V630.49Z" fill="#535461"/>
<path id="Vector_51" opacity="0.1" d="M482.98 630.49H422.98V649.49H482.98V630.49Z" fill="black"/>
<path id="Vector_52" d="M431.99 595.23C437.36 592.23 442.07 589.23 442.48 587.99C442.48 587.99 456.03 602.29 468.1 606.73C472.158 608.229 476.044 610.16 479.69 612.49C484.47 615.49 491.29 619.02 497.48 619.02C497.48 619.02 511.48 631.02 484.48 633.02C457.48 635.02 394.48 628.02 394.48 628.02L398.48 603.02C410.167 603.705 421.804 601 431.99 595.23Z" fill="#ABB1D1"/>
</g>
<g id="left-wheel">
<path id="Vector_53" d="M255.23 714.778L248.96 616.838L248.83 616.628L242.51 618.828L213.43 703.678L167.18 670.888L240.85 617.478L240.92 617.268L241.34 617.118L246.09 613.668L168.85 570.358L149.93 591.158L152.93 610.658L241.75 612.278V614.278L151.27 612.658L147.85 590.518L173.75 562.058L212.5 516.858L213.19 518.728L221.39 509.728L251.85 515.188V513.978L253.85 514.038V515.548L299.21 523.668L256.92 608.278L250.75 612.748V613.248V613.808L348.55 579.728L336.94 670.938L253.94 618.068L251.02 616.428L299.96 695.308L255.23 714.778ZM251.23 620.438L257.08 711.818L297.13 694.438L251.23 620.438ZM170.65 670.868L212.44 700.498L239.78 620.758L170.65 670.868ZM252.97 615.208L255.06 616.378L335.41 667.578L346.21 582.708L252.97 615.208ZM245.87 608.008L248.38 612.058L248.82 611.738L251.82 517.208L222.08 511.888L213.92 520.888L245.87 608.008ZM170.45 568.948L245.29 610.948L243.99 608.818L212.41 522.548L175.22 563.418L170.45 568.948ZM253.85 517.558L250.85 610.278L255.37 606.998L296.28 525.178L253.85 517.558Z" fill="#535461"/>
<path id="Vector_54" d="M364.92 587.738C360.909 569.919 352.79 553.283 341.21 539.158C336.911 533.909 332.171 529.038 327.04 524.598C307.314 507.567 282.491 497.568 256.467 496.17C230.443 494.771 204.692 502.053 183.254 516.873C161.816 531.693 145.906 553.211 138.02 578.05C130.134 602.89 130.719 629.645 139.683 654.116C148.647 678.587 165.482 699.39 187.547 713.258C209.612 727.127 235.657 733.277 261.595 730.743C287.533 728.208 311.895 717.134 330.858 699.257C349.822 681.379 362.312 657.712 366.37 631.968C367.314 625.907 367.789 619.783 367.79 613.648C367.797 604.932 366.834 596.242 364.92 587.738ZM249.73 702.088C231.498 702.069 213.714 696.435 198.797 685.953C183.879 675.47 172.552 660.648 166.356 643.501C160.16 626.354 159.395 607.715 164.165 590.118C168.935 572.521 179.009 556.82 193.018 545.15C207.026 533.48 224.288 526.408 242.457 524.895C260.627 523.381 278.821 527.501 294.567 536.693C310.312 545.884 322.845 559.703 330.46 576.268C338.076 592.834 340.405 611.343 337.13 629.278C333.38 649.722 322.58 668.203 306.611 681.506C290.642 694.809 270.514 702.093 249.73 702.088V702.088Z" fill="#1566B1"/>
<path id="Vector_55" d="M249.73 626.058C256.805 626.058 262.54 620.323 262.54 613.248C262.54 606.173 256.805 600.438 249.73 600.438C242.655 600.438 236.92 606.173 236.92 613.248C236.92 620.323 242.655 626.058 249.73 626.058Z" fill="#535461"/>
</g>
<g id="right-wheel">
<path id="Vector_56" d="M681.42 719.78L675.16 621.88L675.03 621.67L668.71 623.87L639.62 708.68L593.37 675.88L667.06 622.47L667.13 622.26L667.55 622.11L672.3 618.66L595.06 575.35L576.13 596.15L579.13 615.65L667.93 617.23V619.23L577.45 617.61L574.05 595.5L599.94 567.05L638.66 521.88L639.35 523.75L647.55 514.75L678.09 520.22V519.01L680.09 519.07V520.58L725.45 528.7L683.12 613.35L676.95 617.82V618.32V618.88L774.76 584.8L763.15 676.01L680.15 623.14L677.23 621.5L726.17 700.39L681.42 719.78ZM677.42 625.44L683.27 716.82L723.32 699.44L677.42 625.44ZM596.85 675.88L638.64 705.51L665.98 625.77L596.85 675.88ZM679.17 620.22L681.26 621.39L761.61 672.59L772.41 587.72L679.17 620.22ZM672.07 613.02L674.58 617.07L675.02 616.75L678.02 522.22L648.28 516.88L640.12 525.88L672.07 613.02ZM596.68 573.97L671.52 615.97L670.22 613.84L638.64 527.57L601.44 568.45L596.68 573.97ZM680.05 522.58L677.05 615.27L681.57 611.99L722.48 530.17L680.05 522.58Z" fill="#535461"/>
<path id="Vector_57" d="M676.33 501C665.717 500.988 655.15 502.415 644.92 505.24C639.644 506.695 634.477 508.523 629.46 510.71C602.73 522.297 581.247 543.387 569.167 569.898C557.087 596.41 555.269 626.459 564.065 654.233C572.86 682.008 591.644 705.533 616.782 720.259C641.921 734.984 671.627 739.863 700.155 733.952C728.682 728.04 754.004 711.759 771.221 688.257C788.438 664.755 796.327 635.702 793.362 606.72C790.396 577.738 776.787 550.885 755.168 531.356C733.548 511.828 705.454 501.012 676.32 501H676.33ZM675.93 707.09C655.649 707.082 635.981 700.137 620.192 687.407C604.404 674.678 593.445 656.931 589.135 637.113C584.825 617.295 587.424 596.599 596.501 578.463C605.577 560.326 620.584 545.84 639.03 537.41C643.722 535.262 648.594 533.532 653.59 532.24C665.802 529.07 678.549 528.537 690.984 530.678C703.418 532.818 715.253 537.581 725.703 544.652C736.153 551.722 744.977 560.937 751.588 571.683C758.199 582.429 762.446 594.46 764.046 606.975C765.646 619.49 764.562 632.202 760.866 644.265C757.17 656.329 750.948 667.467 742.613 676.939C734.277 686.41 724.02 693.998 712.524 699.196C701.028 704.395 688.557 707.086 675.94 707.09H675.93Z" fill="#1566B1"/>
<path id="Vector_58" d="M675.93 631.06C683.005 631.06 688.74 625.325 688.74 618.25C688.74 611.175 683.005 605.44 675.93 605.44C668.855 605.44 663.12 611.175 663.12 618.25C663.12 625.325 668.855 631.06 675.93 631.06Z" fill="#535461"/>
</g>
<g id="hat">
<path id="Vector_59" d="M452.624 102.927C454.754 109.607 464.984 109.817 470.234 114.737C472.964 117.297 474.234 121.077 477.234 123.357C481.404 126.537 487.424 125.837 492.734 125.077C503.424 123.557 514.904 122.647 524.544 127.257C527.964 128.887 531.034 131.167 534.604 132.497C538.174 133.827 542.604 133.987 545.504 131.627C547.824 129.737 548.674 126.627 550.774 124.547C552.404 122.907 554.674 121.987 556.534 120.547C560.614 117.467 562.374 112.447 563.534 107.647C565.934 97.7668 566.624 87.1168 562.534 77.7468C558.444 68.3768 548.604 60.7468 537.864 61.2368C534.574 61.3868 531.364 62.2368 528.084 62.5968C519.534 63.4668 511.084 60.5968 502.504 60.1068C500.015 59.8039 497.49 60.1483 495.174 61.1068C493.427 62.0776 491.92 63.4273 490.764 65.0568C486.836 70.2022 484.146 76.1836 482.904 82.5368C481.904 87.3268 481.854 91.6668 475.984 92.4068C469.314 93.2868 448.114 88.7968 452.624 102.927Z" fill="#472727"/>
</g>
</g>
<defs>
<linearGradient id="paint0_linear" x1="976" y1="116" x2="86" y2="748" gradientUnits="userSpaceOnUse">
<stop stop-color="#13D5C9"/>
<stop offset="1" stop-color="#4495E0"/>
</linearGradient>
<clipPath id="clip0">
<rect width="1057.7" height="784.98" fill="white"/>
</clipPath>
</defs>
</svg>
